<svg width="84" height="84" viewBox="0 0 84 84" fill="none" xmlns="http://www.w3.org/2000/svg">
<rect width="84" height="84" rx="42" fill="#DDF4FF"/>
<path d="M29.6786 60.5C28.6886 60.5 27.8411 60.1475 27.1361 59.4425C26.4311 58.7375 26.0786 57.89 26.0786 56.9V31.7C26.0786 30.71 26.4311 29.8625 27.1361 29.1575C27.8411 28.4525 28.6886 28.1 29.6786 28.1H31.4786V26.3C31.4786 25.79 31.6511 25.3625 31.9961 25.0175C32.3411 24.6725 32.7686 24.5 33.2786 24.5C33.7886 24.5 34.2161 24.6725 34.5611 25.0175C34.9061 25.3625 35.0786 25.79 35.0786 26.3V28.1H49.4786V26.3C49.4786 25.79 49.6511 25.3625 49.9961 25.0175C50.3411 24.6725 50.7686 24.5 51.2786 24.5C51.7886 24.5 52.2161 24.6725 52.5611 25.0175C52.9061 25.3625 53.0786 25.79 53.0786 26.3V28.1H54.8786C55.8686 28.1 56.7161 28.4525 57.4211 29.1575C58.1261 29.8625 58.4786 30.71 58.4786 31.7V56.9C58.4786 57.89 58.1261 58.7375 57.4211 59.4425C56.7161 60.1475 55.8686 60.5 54.8786 60.5H29.6786ZM29.6786 56.9H54.8786V38.9H29.6786V56.9ZM29.6786 35.3H54.8786V31.7H29.6786V35.3ZM42.2786 46.1C41.7686 46.1 41.3411 45.9275 40.9961 45.5825C40.6511 45.2375 40.4786 44.81 40.4786 44.3C40.4786 43.79 40.6511 43.3625 40.9961 43.0175C41.3411 42.6725 41.7686 42.5 42.2786 42.5C42.7886 42.5 43.2161 42.6725 43.5611 43.0175C43.9061 43.3625 44.0786 43.79 44.0786 44.3C44.0786 44.81 43.9061 45.2375 43.5611 45.5825C43.2161 45.9275 42.7886 46.1 42.2786 46.1ZM35.0786 46.1C34.5686 46.1 34.1411 45.9275 33.7961 45.5825C33.4511 45.2375 33.2786 44.81 33.2786 44.3C33.2786 43.79 33.4511 43.3625 33.7961 43.0175C34.1411 42.6725 34.5686 42.5 35.0786 42.5C35.5886 42.5 36.0161 42.6725 36.3611 43.0175C36.7061 43.3625 36.8786 43.79 36.8786 44.3C36.8786 44.81 36.7061 45.2375 36.3611 45.5825C36.0161 45.9275 35.5886 46.1 35.0786 46.1ZM49.4786 46.1C48.9686 46.1 48.5411 45.9275 48.1961 45.5825C47.8511 45.2375 47.6786 44.81 47.6786 44.3C47.6786 43.79 47.8511 43.3625 48.1961 43.0175C48.5411 42.6725 48.9686 42.5 49.4786 42.5C49.9886 42.5 50.4161 42.6725 50.7611 43.0175C51.1061 43.3625 51.2786 43.79 51.2786 44.3C51.2786 44.81 51.1061 45.2375 50.7611 45.5825C50.4161 45.9275 49.9886 46.1 49.4786 46.1ZM42.2786 53.3C41.7686 53.3 41.3411 53.1275 40.9961 52.7825C40.6511 52.4375 40.4786 52.01 40.4786 51.5C40.4786 50.99 40.6511 50.5625 40.9961 50.2175C41.3411 49.8725 41.7686 49.7 42.2786 49.7C42.7886 49.7 43.2161 49.8725 43.5611 50.2175C43.9061 50.5625 44.0786 50.99 44.0786 51.5C44.0786 52.01 43.9061 52.4375 43.5611 52.7825C43.2161 53.1275 42.7886 53.3 42.2786 53.3ZM35.0786 53.3C34.5686 53.3 34.1411 53.1275 33.7961 52.7825C33.4511 52.4375 33.2786 52.01 33.2786 51.5C33.2786 50.99 33.4511 50.5625 33.7961 50.2175C34.1411 49.8725 34.5686 49.7 35.0786 49.7C35.5886 49.7 36.0161 49.8725 36.3611 50.2175C36.7061 50.5625 36.8786 50.99 36.8786 51.5C36.8786 52.01 36.7061 52.4375 36.3611 52.7825C36.0161 53.1275 35.5886 53.3 35.0786 53.3ZM49.4786 53.3C48.9686 53.3 48.5411 53.1275 48.1961 52.7825C47.8511 52.4375 47.6786 52.01 47.6786 51.5C47.6786 50.99 47.8511 50.5625 48.1961 50.2175C48.5411 49.8725 48.9686 49.7 49.4786 49.7C49.9886 49.7 50.4161 49.8725 50.7611 50.2175C51.1061 50.5625 51.2786 50.99 51.2786 51.5C51.2786 52.01 51.1061 52.4375 50.7611 52.7825C50.4161 53.1275 49.9886 53.3 49.4786 53.3Z" fill="#2AB9FF"/>
</svg>
