<svg width="28" height="31" viewBox="0 0 28 31" fill="none" xmlns="http://www.w3.org/2000/svg">
<path d="M3.11111 31C2.25556 31 1.52315 30.6965 0.913889 30.0894C0.30463 29.4823 0 28.7525 0 27.9V6.2C0 5.3475 0.30463 4.61771 0.913889 4.01062C1.52315 3.40354 2.25556 3.1 3.11111 3.1H4.66667V1.55C4.66667 1.11083 4.81574 0.742708 5.11389 0.445625C5.41204 0.148542 5.78148 0 6.22222 0C6.66296 0 7.03241 0.148542 7.33056 0.445625C7.6287 0.742708 7.77778 1.11083 7.77778 1.55V3.1H20.2222V1.55C20.2222 1.11083 20.3713 0.742708 20.6694 0.445625C20.9676 0.148542 21.337 0 21.7778 0C22.2185 0 22.588 0.148542 22.8861 0.445625C23.1843 0.742708 23.3333 1.11083 23.3333 1.55V3.1H24.8889C25.7444 3.1 26.4769 3.40354 27.0861 4.01062C27.6954 4.61771 28 5.3475 28 6.2V27.9C28 28.7525 27.6954 29.4823 27.0861 30.0894C26.4769 30.6965 25.7444 31 24.8889 31H3.11111ZM3.11111 27.9H24.8889V12.4H3.11111V27.9ZM3.11111 9.3H24.8889V6.2H3.11111V9.3ZM14 18.6C13.5593 18.6 13.1898 18.4515 12.8917 18.1544C12.5935 17.8573 12.4444 17.4892 12.4444 17.05C12.4444 16.6108 12.5935 16.2427 12.8917 15.9456C13.1898 15.6485 13.5593 15.5 14 15.5C14.4407 15.5 14.8102 15.6485 15.1083 15.9456C15.4065 16.2427 15.5556 16.6108 15.5556 17.05C15.5556 17.4892 15.4065 17.8573 15.1083 18.1544C14.8102 18.4515 14.4407 18.6 14 18.6ZM7.77778 18.6C7.33704 18.6 6.96759 18.4515 6.66944 18.1544C6.3713 17.8573 6.22222 17.4892 6.22222 17.05C6.22222 16.6108 6.3713 16.2427 6.66944 15.9456C6.96759 15.6485 7.33704 15.5 7.77778 15.5C8.21852 15.5 8.58796 15.6485 8.88611 15.9456C9.18426 16.2427 9.33333 16.6108 9.33333 17.05C9.33333 17.4892 9.18426 17.8573 8.88611 18.1544C8.58796 18.4515 8.21852 18.6 7.77778 18.6ZM20.2222 18.6C19.7815 18.6 19.412 18.4515 19.1139 18.1544C18.8157 17.8573 18.6667 17.4892 18.6667 17.05C18.6667 16.6108 18.8157 16.2427 19.1139 15.9456C19.412 15.6485 19.7815 15.5 20.2222 15.5C20.663 15.5 21.0324 15.6485 21.3306 15.9456C21.6287 16.2427 21.7778 16.6108 21.7778 17.05C21.7778 17.4892 21.6287 17.8573 21.3306 18.1544C21.0324 18.4515 20.663 18.6 20.2222 18.6ZM14 24.8C13.5593 24.8 13.1898 24.6515 12.8917 24.3544C12.5935 24.0573 12.4444 23.6892 12.4444 23.25C12.4444 22.8108 12.5935 22.4427 12.8917 22.1456C13.1898 21.8485 13.5593 21.7 14 21.7C14.4407 21.7 14.8102 21.8485 15.1083 22.1456C15.4065 22.4427 15.5556 22.8108 15.5556 23.25C15.5556 23.6892 15.4065 24.0573 15.1083 24.3544C14.8102 24.6515 14.4407 24.8 14 24.8ZM7.77778 24.8C7.33704 24.8 6.96759 24.6515 6.66944 24.3544C6.3713 24.0573 6.22222 23.6892 6.22222 23.25C6.22222 22.8108 6.3713 22.4427 6.66944 22.1456C6.96759 21.8485 7.33704 21.7 7.77778 21.7C8.21852 21.7 8.58796 21.8485 8.88611 22.1456C9.18426 22.4427 9.33333 22.8108 9.33333 23.25C9.33333 23.6892 9.18426 24.0573 8.88611 24.3544C8.58796 24.6515 8.21852 24.8 7.77778 24.8ZM20.2222 24.8C19.7815 24.8 19.412 24.6515 19.1139 24.3544C18.8157 24.0573 18.6667 23.6892 18.6667 23.25C18.6667 22.8108 18.8157 22.4427 19.1139 22.1456C19.412 21.8485 19.7815 21.7 20.2222 21.7C20.663 21.7 21.0324 21.8485 21.3306 22.1456C21.6287 22.4427 21.7778 22.8108 21.7778 23.25C21.7778 23.6892 21.6287 24.0573 21.3306 24.3544C21.0324 24.6515 20.663 24.8 20.2222 24.8Z" fill="#2AB9FF"/>
</svg>
