<svg width="32" height="24" viewBox="0 0 32 24" fill="none" xmlns="http://www.w3.org/2000/svg">
<path d="M8 23.2727C5.79394 23.2727 3.90909 22.5091 2.34545 20.9818C0.781818 19.4545 0 17.5879 0 15.3818C0 13.4909 0.569697 11.8061 1.70909 10.3273C2.84848 8.84848 4.33939 7.90303 6.18182 7.49091C6.78788 5.26061 8 3.45455 9.81818 2.07273C11.6364 0.690909 13.697 0 16 0C18.8364 0 21.2424 0.987879 23.2182 2.96364C25.1939 4.93939 26.1818 7.34545 26.1818 10.1818C27.8545 10.3758 29.2424 11.097 30.3455 12.3455C31.4485 13.5939 32 15.0545 32 16.7273C32 18.5455 31.3636 20.0909 30.0909 21.3636C28.8182 22.6364 27.2727 23.2727 25.4545 23.2727H8ZM8 20.3636H25.4545C26.4727 20.3636 27.3333 20.0121 28.0364 19.3091C28.7394 18.6061 29.0909 17.7455 29.0909 16.7273C29.0909 15.7091 28.7394 14.8485 28.0364 14.1455C27.3333 13.4424 26.4727 13.0909 25.4545 13.0909H23.2727V10.1818C23.2727 8.1697 22.5636 6.45455 21.1455 5.03636C19.7273 3.61818 18.0121 2.90909 16 2.90909C13.9879 2.90909 12.2727 3.61818 10.8545 5.03636C9.43636 6.45455 8.72727 8.1697 8.72727 10.1818H8C6.59394 10.1818 5.39394 10.6788 4.4 11.6727C3.40606 12.6667 2.90909 13.8667 2.90909 15.2727C2.90909 16.6788 3.40606 17.8788 4.4 18.8727C5.39394 19.8667 6.59394 20.3636 8 20.3636Z" fill="#A431FF"/>
</svg>
