<svg width="84" height="84" viewBox="0 0 84 84" fill="none" xmlns="http://www.w3.org/2000/svg">
<rect width="84" height="84" rx="42" fill="#FFEDE6"/>
<path d="M33 51.5H26.25C25.6125 51.5 25.0781 51.2844 24.6469 50.8531C24.2156 50.4219 24 49.8875 24 49.25C24 48.6125 24.2156 48.0781 24.6469 47.6469C25.0781 47.2156 25.6125 47 26.25 47H33V38H26.25C25.6125 38 25.0781 37.7844 24.6469 37.3531C24.2156 36.9219 24 36.3875 24 35.75C24 35.1125 24.2156 34.5781 24.6469 34.1469C25.0781 33.7156 25.6125 33.5 26.25 33.5H33V26.75C33 26.1125 33.2156 25.5781 33.6469 25.1469C34.0781 24.7156 34.6125 24.5 35.25 24.5C35.8875 24.5 36.4219 24.7156 36.8531 25.1469C37.2844 25.5781 37.5 26.1125 37.5 26.75V33.5H46.5V26.75C46.5 26.1125 46.7156 25.5781 47.1469 25.1469C47.5781 24.7156 48.1125 24.5 48.75 24.5C49.3875 24.5 49.9219 24.7156 50.3531 25.1469C50.7844 25.5781 51 26.1125 51 26.75V33.5H57.75C58.3875 33.5 58.9219 33.7156 59.3531 34.1469C59.7844 34.5781 60 35.1125 60 35.75C60 36.3875 59.7844 36.9219 59.3531 37.3531C58.9219 37.7844 58.3875 38 57.75 38H51V47H57.75C58.3875 47 58.9219 47.2156 59.3531 47.6469C59.7844 48.0781 60 48.6125 60 49.25C60 49.8875 59.7844 50.4219 59.3531 50.8531C58.9219 51.2844 58.3875 51.5 57.75 51.5H51V58.25C51 58.8875 50.7844 59.4219 50.3531 59.8531C49.9219 60.2844 49.3875 60.5 48.75 60.5C48.1125 60.5 47.5781 60.2844 47.1469 59.8531C46.7156 59.4219 46.5 58.8875 46.5 58.25V51.5H37.5V58.25C37.5 58.8875 37.2844 59.4219 36.8531 59.8531C36.4219 60.2844 35.8875 60.5 35.25 60.5C34.6125 60.5 34.0781 60.2844 33.6469 59.8531C33.2156 59.4219 33 58.8875 33 58.25V51.5ZM37.5 47H46.5V38H37.5V47Z" fill="#FF6C31"/>
</svg>
