<svg width="28" height="28" viewBox="0 0 28 28" fill="none" xmlns="http://www.w3.org/2000/svg">
<path d="M7 21H1.75C1.25417 21 0.838542 20.8323 0.503125 20.4969C0.167708 20.1615 0 19.7458 0 19.25C0 18.7542 0.167708 18.3385 0.503125 18.0031C0.838542 17.6677 1.25417 17.5 1.75 17.5H7V10.5H1.75C1.25417 10.5 0.838542 10.3323 0.503125 9.99687C0.167708 9.66146 0 9.24583 0 8.75C0 8.25417 0.167708 7.83854 0.503125 7.50312C0.838542 7.16771 1.25417 7 1.75 7H7V1.75C7 1.25417 7.16771 0.838542 7.50312 0.503125C7.83854 0.167708 8.25417 0 8.75 0C9.24583 0 9.66146 0.167708 9.99687 0.503125C10.3323 0.838542 10.5 1.25417 10.5 1.75V7H17.5V1.75C17.5 1.25417 17.6677 0.838542 18.0031 0.503125C18.3385 0.167708 18.7542 0 19.25 0C19.7458 0 20.1615 0.167708 20.4969 0.503125C20.8323 0.838542 21 1.25417 21 1.75V7H26.25C26.7458 7 27.1615 7.16771 27.4969 7.50312C27.8323 7.83854 28 8.25417 28 8.75C28 9.24583 27.8323 9.66146 27.4969 9.99687C27.1615 10.3323 26.7458 10.5 26.25 10.5H21V17.5H26.25C26.7458 17.5 27.1615 17.6677 27.4969 18.0031C27.8323 18.3385 28 18.7542 28 19.25C28 19.7458 27.8323 20.1615 27.4969 20.4969C27.1615 20.8323 26.7458 21 26.25 21H21V26.25C21 26.7458 20.8323 27.1615 20.4969 27.4969C20.1615 27.8323 19.7458 28 19.25 28C18.7542 28 18.3385 27.8323 18.0031 27.4969C17.6677 27.1615 17.5 26.7458 17.5 26.25V21H10.5V26.25C10.5 26.7458 10.3323 27.1615 9.99687 27.4969C9.66146 27.8323 9.24583 28 8.75 28C8.25417 28 7.83854 27.8323 7.50312 27.4969C7.16771 27.1615 7 26.7458 7 26.25V21ZM10.5 17.5H17.5V10.5H10.5V17.5Z" fill="#FF6C31"/>
</svg>
