<svg width="84" height="84" viewBox="0 0 84 84" fill="none" xmlns="http://www.w3.org/2000/svg">
<rect width="84" height="84" rx="42" fill="#F6E7ED"/>
<path d="M36.9492 43.0664C40.4888 43.0664 44.0934 43.9412 46.875 45.7715H46.874C49.3702 47.408 50.7969 49.699 50.7969 52.1631C50.7967 54.6266 49.3708 56.922 46.876 58.5674C44.0857 60.4065 40.4764 61.2871 36.9355 61.2871C33.3946 61.2871 29.7854 60.4066 26.9951 58.5674V58.5664C24.5003 56.93 23.0744 54.6401 23.0742 52.1768C23.0742 49.7131 24.5003 47.4179 26.9951 45.7725L27 45.7695C29.7981 43.9418 33.4094 43.0664 36.9492 43.0664ZM36.9492 45.5996C33.7878 45.5997 30.6879 46.3872 28.3896 47.8867L28.3906 47.8877C26.4167 49.1895 25.6074 50.7699 25.6074 52.1768C25.6076 53.4949 26.3177 54.9611 28.0312 56.2041L28.3867 56.4502L28.3896 56.4512C30.6778 57.9594 33.773 58.7529 36.9355 58.7529C40.098 58.7529 43.1933 57.9594 45.4814 56.4512C47.4548 55.1495 48.2625 53.5697 48.2627 52.1631C48.2627 50.757 47.4554 49.1822 45.4834 47.8896L45.4814 47.8887C43.2031 46.3897 40.1132 45.5996 36.9492 45.5996ZM52.6973 45.5371C52.8491 44.8542 53.526 44.4226 54.209 44.5742C55.6537 44.895 57.0685 45.4672 58.2598 46.3633H58.2588C59.9687 47.6299 60.9257 49.3947 60.9258 51.2607C60.9257 53.1254 59.9693 54.8879 58.2617 56.1543L58.2627 56.1553C57.0562 57.0679 55.6191 57.6638 54.1338 57.9688C53.4484 58.1094 52.7785 57.6678 52.6377 56.9824C52.4971 56.297 52.9387 55.6271 53.624 55.4863C54.7976 55.2454 55.8729 54.7855 56.7344 54.1338L56.7451 54.126C57.9106 53.2647 58.3925 52.2115 58.3926 51.2607C58.3925 50.3099 57.9108 49.2569 56.7451 48.3955L56.7363 48.3887C55.8967 47.7571 54.837 47.3102 53.6602 47.0488C52.9771 46.8972 52.5457 46.2202 52.6973 45.5371ZM50.3145 26.3516C54.581 26.3517 58.0447 29.7591 58.0449 33.9854C58.0447 38.1257 54.7143 41.4674 50.6006 41.6191C50.5335 41.6216 50.4661 41.6195 50.3994 41.6113C50.3599 41.6065 50.2925 41.6045 50.2119 41.6133C49.5165 41.6893 48.8908 41.1865 48.8145 40.4912C48.7384 39.7956 49.241 39.1699 49.9365 39.0938C50.143 39.0712 50.3584 39.0668 50.5703 39.083C53.3333 38.9487 55.5105 36.7011 55.5107 33.9854C55.5105 31.1896 53.2126 28.8849 50.3145 28.8848C49.6148 28.8848 49.0471 28.3177 49.0469 27.6182C49.0469 26.9184 49.6147 26.3516 50.3145 26.3516ZM36.6309 22.7129C41.8368 22.7131 46.0974 26.8831 46.0977 32.0576V32.0625C46.0763 37.1221 42.0324 41.2147 36.9688 41.3828C36.9136 41.3846 36.8577 41.3833 36.8027 41.3779C36.7044 41.3682 36.5614 41.3671 36.4297 41.3789C36.3785 41.3835 36.3267 41.3845 36.2754 41.3828C31.2125 41.2152 27.1652 37.1225 27.165 32.0576C27.1652 26.8848 31.4044 22.713 36.6309 22.7129ZM36.6309 25.2461C32.7719 25.2462 29.6985 28.3162 29.6982 32.0576C29.6984 35.7083 32.6048 38.6984 36.3076 38.8477C36.5147 38.8339 36.733 38.8325 36.9385 38.8467C40.6371 38.6961 43.545 35.71 43.5635 32.0576L43.5547 31.709C43.3698 28.129 40.3532 25.2463 36.6309 25.2461Z" fill="#E61366"/>
</svg>
