<svg width="28" height="29" viewBox="0 0 28 29" fill="none" xmlns="http://www.w3.org/2000/svg">
<path d="M10.3594 14.6797C12.964 14.6798 15.635 15.3224 17.7109 16.6885H17.71C19.5832 17.9169 20.6992 19.6692 20.6992 21.5938C20.6991 23.3975 19.7193 25.0533 18.0547 26.2705L17.7119 26.5078C15.6299 27.8804 12.9557 28.5282 10.3496 28.5283C7.74337 28.5283 5.06851 27.8804 2.98633 26.5078V26.5068C1.11444 25.2786 0.000113423 23.5273 0 21.6035C3.63319e-05 19.6794 1.11445 17.9242 2.98633 16.6895L2.99121 16.6865C5.07869 15.3229 7.75423 14.6797 10.3594 14.6797ZM21.3701 16.7383C21.5219 16.0553 22.1989 15.6239 22.8818 15.7754C23.9574 16.0142 25.0235 16.4428 25.9297 17.1221C27.2428 18.0925 28.0027 19.4667 28.0029 20.9424C28.0029 22.4182 27.2438 23.7932 25.9307 24.7637L25.9297 24.7627C25.0139 25.4524 23.9322 25.8991 22.8223 26.127C22.1368 26.2677 21.4669 25.8261 21.3262 25.1406C21.1856 24.4553 21.6271 23.7852 22.3125 23.6445C23.1152 23.4797 23.8399 23.168 24.4131 22.7344L24.4248 22.7256C25.1889 22.1608 25.4688 21.5003 25.4688 20.9424C25.4686 20.3845 25.1887 19.7247 24.4248 19.1602L24.416 19.1533C23.8595 18.7346 23.1444 18.4302 22.333 18.25C21.65 18.0983 21.2186 17.4213 21.3701 16.7383ZM10.3594 17.2129C8.13276 17.2129 5.96851 17.7683 4.38086 18.8037L4.38184 18.8047C3.03095 19.6957 2.53324 20.736 2.5332 21.6035C2.53331 22.416 2.96986 23.3772 4.13574 24.2227L4.37793 24.3906L4.38086 24.3926C5.96092 25.4341 8.1219 25.9941 10.3496 25.9941C12.5772 25.994 14.7375 25.4342 16.3174 24.3926C17.6679 23.5016 18.1649 22.4612 18.165 21.5938C18.165 20.7271 17.6689 19.6908 16.3203 18.8066L16.3184 18.8057C14.7456 17.7707 12.5885 17.213 10.3594 17.2129ZM19.9961 2.62305C23.264 2.62305 25.9246 5.23502 25.9248 8.48242C25.9248 11.6644 23.3669 14.2256 20.2158 14.3418C20.1488 14.3442 20.0812 14.3412 20.0146 14.333C20.0126 14.3328 20.0075 14.332 20.001 14.332C19.9898 14.3321 19.9756 14.3334 19.9609 14.335C19.2656 14.4108 18.6396 13.9083 18.5635 13.2129C18.4877 12.5177 18.9904 11.8917 19.6855 11.8154C19.847 11.7978 20.0171 11.7932 20.1865 11.8047C21.9857 11.7056 23.3906 10.24 23.3906 8.48242C23.3904 6.66502 21.8951 5.15625 19.9961 5.15625C19.2967 5.15588 18.7295 4.58918 18.7295 3.88965C18.7297 3.1903 19.2968 2.62342 19.9961 2.62305ZM10.1289 0C14.0737 4.85237e-05 17.3085 3.16056 17.3086 7.09277V7.09863C17.2919 10.9408 14.2221 14.0447 10.3838 14.1719C10.3284 14.1737 10.2729 14.1724 10.2178 14.167C10.1708 14.1624 10.0908 14.1613 10.0156 14.168C9.96414 14.1726 9.91201 14.1736 9.86035 14.1719C6.02304 14.0447 2.94946 10.9402 2.94922 7.09277C2.94927 3.1624 6.16895 4.92531e-05 10.1289 0ZM10.1289 2.5332C7.53678 2.53325 5.48248 4.5934 5.48242 7.09277C5.48266 9.5361 7.43124 11.5435 9.92188 11.6377C10.0626 11.6302 10.2086 11.6271 10.3496 11.6357C12.8245 11.5282 14.7611 9.52995 14.7744 7.09277C14.7744 4.59524 12.7096 2.53325 10.1289 2.5332Z" fill="#E61366"/>
</svg>
